<svg version="1.1" id="Layer_1" xmlns="http://www.w3.org/2000/svg" xmlns:xlink="http://www.w3.org/1999/xlink" x="0px" y="0px"
	 width="100%" viewBox="0 0 449 94" enable-background="new 0 0 449 94" xml:space="preserve">
<path fill="#FEFEFD" opacity="1.000000" stroke="none" 
	d="
M336.000000,95.000000 
	C224.000015,95.000000 112.500023,95.000000 1.000030,95.000000 
	C1.000020,63.666683 1.000020,32.333366 1.000010,1.000038 
	C150.666641,1.000026 300.333282,1.000026 449.999939,1.000013 
	C449.999939,32.333294 449.999939,63.666592 449.999969,94.999939 
	C412.166656,95.000000 374.333344,95.000000 336.000000,95.000000 
M314.933685,86.996346 
	C325.622406,86.935638 336.311127,86.874931 347.929596,86.937057 
	C359.278595,86.856720 370.627594,86.776375 382.904541,86.868248 
	C392.261841,86.785378 401.619110,86.702507 411.896576,86.813362 
	C421.501923,86.820755 431.108337,86.894753 440.711151,86.742424 
	C441.785217,86.725372 442.838898,85.424080 443.902039,84.718346 
	C443.148132,83.879532 442.389496,82.307693 441.641083,82.312561 
	C431.415344,82.378891 421.191040,82.663155 410.036194,82.833366 
	C400.688965,82.902885 391.341766,82.972397 381.062531,82.939552 
	C369.708130,83.006958 358.353729,83.074364 346.068390,83.022278 
	C335.379913,83.086044 324.691437,83.149811 313.074371,83.079613 
	C302.041931,83.171631 291.009491,83.263657 279.057892,83.189468 
	C263.375031,83.359695 247.692184,83.529922 231.192413,83.392120 
	C215.128036,83.599228 199.063675,83.806335 182.068344,83.892654 
	C165.047195,83.961975 148.026031,84.031303 130.073608,83.977654 
	C119.706482,84.045731 109.339348,84.113808 98.044113,84.076462 
	C83.357590,84.184486 68.671059,84.292511 53.067638,84.217293 
	C38.085045,84.254608 23.101824,84.239861 8.120958,84.420517 
	C6.814366,84.436264 5.523270,85.737137 4.224974,86.441093 
	C5.503648,87.073669 6.782114,88.254768 8.061030,88.255249 
	C23.373528,88.261070 38.686089,88.091675 54.927486,88.109932 
	C69.943840,88.034126 84.960197,87.958313 100.908859,88.022148 
	C110.942650,87.954636 120.976433,87.887123 131.939499,87.935661 
	C148.952271,87.807137 165.965027,87.678612 183.897888,87.767365 
	C199.933197,87.542702 215.968491,87.318039 232.935165,87.210602 
	C248.622009,87.125015 264.308838,87.039429 280.927185,87.077873 
	C291.952393,87.011932 302.977600,86.945999 314.933685,86.996346 
M182.221344,37.840858 
	C185.310883,46.211273 188.273773,54.632942 191.619217,62.899807 
	C192.154022,64.221321 194.405853,65.594315 195.858276,65.588287 
	C197.311386,65.582260 199.226181,64.181496 200.094284,62.844074 
	C201.328415,60.942780 201.806442,58.546062 202.579987,56.351315 
	C204.783646,50.098938 206.973343,43.841640 209.168549,37.586281 
	C209.430771,37.670013 209.692993,37.753750 209.955215,37.837486 
	C210.738586,47.082153 211.521973,56.326817 212.320053,65.744957 
	C216.230423,65.744957 219.810287,65.744957 223.761688,65.744957 
	C222.243790,48.988369 220.752487,32.525368 219.233032,15.751527 
	C217.110336,15.751527 215.586868,15.981511 214.158188,15.710975 
	C208.533966,14.645948 205.866486,17.067959 204.244492,22.444223 
	C202.111923,29.512808 199.047928,36.300385 195.880753,44.515308 
	C192.267242,35.209606 189.259201,27.206266 185.999069,19.306967 
	C185.419937,17.903732 183.916336,16.119556 182.624908,15.923166 
	C179.416473,15.435253 176.084015,15.762712 172.476837,15.762712 
	C170.950821,32.766026 169.474564,49.214939 167.984146,65.821617 
	C172.116104,65.821617 175.568726,65.821617 179.365570,65.821617 
	C180.204132,56.596760 181.029419,47.517937 182.221344,37.840858 
M231.777374,15.799338 
	C231.178436,16.800547 230.149582,17.759161 230.045517,18.809397 
	C228.651718,32.877037 227.373581,46.956261 226.109329,61.036438 
	C225.968872,62.600693 226.090332,64.188469 226.090332,65.745468 
	C230.056107,65.745468 233.488419,65.745468 237.167328,65.745468 
	C237.958145,56.441639 238.729355,47.368385 239.500565,38.295135 
	C243.379852,46.244106 246.253311,54.184994 248.924744,62.193272 
	C249.764450,64.710464 250.828400,65.986801 253.787643,65.910698 
	C256.522491,65.840363 257.461884,64.696899 258.243866,62.338951 
	C260.930237,54.238613 263.844238,46.213760 266.671478,38.160137 
	C267.007263,38.182152 267.343048,38.204163 267.678833,38.226177 
	C268.482056,47.334003 269.285278,56.441830 270.100433,65.684967 
	C273.931335,65.684967 277.491394,65.684967 281.484161,65.684967 
	C279.963776,48.857479 278.475708,32.387856 276.972626,15.752241 
	C274.452271,15.752241 272.584808,16.020424 270.823975,15.700984 
	C265.920715,14.811467 263.839722,17.202993 262.370636,21.572031 
	C259.846130,29.079773 256.760284,36.398769 253.729813,44.264942 
	C253.196625,43.191414 252.941193,42.762585 252.762268,42.303909 
	C250.529068,36.579048 248.280701,30.859892 246.088028,25.119484 
	C242.506577,15.743246 242.522659,15.737101 231.777374,15.799338 
M152.959564,63.653965 
	C154.168808,62.776871 155.452988,61.985901 156.575455,61.009102 
	C165.846786,52.941105 168.396591,39.085728 162.641953,28.263517 
	C156.978897,17.613525 144.881683,12.419760 133.416946,15.716152 
	C118.715927,19.943056 111.037262,36.132725 116.706444,50.948524 
	C122.123604,65.105698 137.599655,70.780907 152.959564,63.653965 
M321.288849,37.500084 
	C321.288849,46.920029 321.288849,56.339977 321.288849,65.630417 
	C325.598938,65.630417 329.165833,65.630417 333.142822,65.630417 
	C333.142822,59.383068 333.142822,53.508785 333.142822,46.484596 
	C337.895996,52.636219 341.874054,57.901730 346.005341,63.044136 
	C346.967499,64.241814 348.384735,65.736763 349.706635,65.858696 
	C353.716095,66.228577 357.781403,65.992554 362.827423,65.992554 
	C356.676636,58.569157 351.304260,52.085186 345.810059,45.454216 
	C347.221710,44.603371 348.388123,43.976532 349.474396,43.232666 
	C354.718811,39.641346 356.381805,34.418041 355.728088,28.422152 
	C355.066803,22.356728 351.637115,17.672697 345.702972,16.793411 
	C337.800842,15.622526 329.693695,15.835544 321.289093,15.435734 
	C321.289093,23.228081 321.289093,29.864124 321.288849,37.500084 
M106.026787,28.018490 
	C106.943794,27.785112 108.351768,27.842571 108.692307,27.267712 
	C110.120926,24.856049 111.229973,22.255085 112.425514,19.786501 
	C103.305084,11.887699 86.275780,13.447811 76.681496,22.870335 
	C67.111107,32.269398 66.333763,46.321831 74.807579,56.746204 
	C83.758171,67.757103 100.645874,70.291290 112.462250,62.095154 
	C111.815170,60.691917 111.171371,59.195461 110.442352,57.741741 
	C109.640343,56.142471 108.759941,54.582516 107.863113,52.911144 
	C106.192299,53.589447 104.861328,54.235752 103.465797,54.678593 
	C96.113403,57.011742 88.476089,54.965073 84.450012,49.637691 
	C80.744186,44.734066 80.435303,38.514072 83.637764,33.281265 
	C87.783806,26.506659 95.591454,24.514210 106.026787,28.018490 
M379.675842,16.954273 
	C369.604126,21.531025 363.371918,29.037397 363.049469,40.338852 
	C362.737396,51.276405 368.383759,59.064312 377.848785,63.864487 
	C387.427032,68.722107 396.991089,67.894325 406.713959,62.358620 
	C405.001404,58.968952 403.468079,55.934017 401.955383,52.939861 
	C391.527832,57.088749 383.469910,55.961403 378.681854,49.935562 
	C374.530701,44.711250 374.361145,37.812225 378.249664,32.346336 
	C382.880981,25.836277 390.859924,24.528568 402.070526,28.641779 
	C403.543732,25.629913 405.033844,22.583504 406.697937,19.181377 
	C397.935669,14.224554 389.374268,13.522715 379.675842,16.954273 
M430.496368,45.887459 
	C433.268860,45.887459 436.041351,45.887459 438.755615,45.887459 
	C438.755615,42.157093 438.755615,39.104355 438.755615,35.588417 
	C433.271667,35.588417 428.178680,35.588417 423.030823,35.588417 
	C423.030823,32.182041 423.030823,29.252657 423.030823,25.812588 
	C428.703003,25.812588 434.121887,25.812588 439.692108,25.812588 
	C439.692108,22.229437 439.692108,19.170481 439.692108,16.010105 
	C430.128143,16.010105 420.872986,16.010105 411.485748,16.010105 
	C411.485748,32.789082 411.485748,49.306023 411.485748,65.703560 
	C421.157623,65.703560 430.420746,65.703560 439.655396,65.703560 
	C439.655396,62.333405 439.655396,59.273369 439.655396,55.766701 
	C433.891510,55.766701 428.464020,55.766701 423.162781,55.766701 
	C423.162781,52.244991 423.162781,49.188736 423.162781,45.887409 
	C425.550507,45.887409 427.535370,45.887409 430.496368,45.887459 
M286.079895,39.500031 
	C286.079895,48.256672 286.079895,57.013313 286.079895,65.744751 
	C296.067291,65.744751 305.329865,65.744751 314.698853,65.744751 
	C314.698853,62.419533 314.698853,59.360928 314.698853,55.846039 
	C308.984436,55.846039 303.562683,55.846039 298.115356,55.846039 
	C298.115356,52.322227 298.115356,49.268715 298.115356,45.760113 
	C303.557434,45.760113 308.648560,45.760113 313.792603,45.760113 
	C313.792603,42.232204 313.792603,39.178761 313.792603,35.661484 
	C308.346771,35.661484 303.252106,35.661484 298.178345,35.661484 
	C298.178345,32.140060 298.178345,29.098730 298.178345,25.541836 
	C303.998291,25.541836 309.402954,25.541836 314.727478,25.541836 
	C314.727478,22.066298 314.727478,19.127184 314.727478,16.162489 
	C305.090332,16.162489 295.730621,16.162489 286.079926,16.162489 
	C286.079926,23.881079 286.079926,31.190563 286.079895,39.500031 
M31.338306,45.880707 
	C33.084972,45.880707 34.831638,45.880707 36.529301,45.880707 
	C36.529301,42.130295 36.529301,39.200340 36.529301,35.751156 
	C30.992289,35.751156 25.745079,35.751156 20.453350,35.751156 
	C20.453350,32.165066 20.453350,29.116938 20.453350,25.541611 
	C26.228554,25.541611 31.634638,25.541611 37.077579,25.541611 
	C37.077579,22.085972 37.077579,19.168575 37.077579,16.107777 
	C27.555794,16.107777 18.345278,16.107777 9.072061,16.107777 
	C9.072061,32.845093 9.072061,49.230785 9.072061,65.681747 
	C18.628742,65.681747 27.868351,65.681747 37.165291,65.681747 
	C37.165291,62.412441 37.165291,59.462811 37.165291,55.873764 
	C31.410961,55.873764 25.862091,55.873764 20.317329,55.873764 
	C20.317329,52.290550 20.317329,49.351749 20.317329,45.880661 
	C23.819988,45.880661 27.104404,45.880661 31.338306,45.880707 
M44.100422,45.650707 
	C44.100422,47.936424 44.100422,50.222145 44.100422,52.663284 
	C50.895451,52.663284 57.261349,52.663284 63.569695,52.663284 
	C63.569695,49.573147 63.569695,46.832153 63.569695,43.299572 
	C56.872906,43.789040 50.538204,44.252041 44.100422,45.650707 
z"/>
<path fill="#FFA705" opacity="1.000000" stroke="none" 
	d="
M182.038025,38.139984 
	C181.029419,47.517937 180.204132,56.596760 179.365570,65.821617 
	C175.568726,65.821617 172.116104,65.821617 167.984146,65.821617 
	C169.474564,49.214939 170.950821,32.766026 172.476837,15.762712 
	C176.084015,15.762712 179.416473,15.435253 182.624908,15.923166 
	C183.916336,16.119556 185.419937,17.903732 185.999069,19.306967 
	C189.259201,27.206266 192.267242,35.209606 195.880753,44.515308 
	C199.047928,36.300385 202.111923,29.512808 204.244492,22.444223 
	C205.866486,17.067959 208.533966,14.645948 214.158188,15.710975 
	C215.586868,15.981511 217.110336,15.751527 219.233032,15.751527 
	C220.752487,32.525368 222.243790,48.988369 223.761688,65.744957 
	C219.810287,65.744957 216.230423,65.744957 212.320053,65.744957 
	C211.521973,56.326817 210.738586,47.082153 209.955215,37.837486 
	C209.692993,37.753750 209.430771,37.670013 209.168549,37.586281 
	C206.973343,43.841640 204.783646,50.098938 202.579987,56.351315 
	C201.806442,58.546062 201.328415,60.942780 200.094284,62.844074 
	C199.226181,64.181496 197.311386,65.582260 195.858276,65.588287 
	C194.405853,65.594315 192.154022,64.221321 191.619217,62.899807 
	C188.273773,54.632942 185.310883,46.211273 182.038025,38.139984 
z"/>
<path fill="#FFA705" opacity="1.000000" stroke="none" 
	d="
M232.243088,15.779396 
	C242.522659,15.737101 242.506577,15.743246 246.088028,25.119484 
	C248.280701,30.859892 250.529068,36.579048 252.762268,42.303909 
	C252.941193,42.762585 253.196625,43.191414 253.729813,44.264942 
	C256.760284,36.398769 259.846130,29.079773 262.370636,21.572031 
	C263.839722,17.202993 265.920715,14.811467 270.823975,15.700984 
	C272.584808,16.020424 274.452271,15.752241 276.972626,15.752241 
	C278.475708,32.387856 279.963776,48.857479 281.484161,65.684967 
	C277.491394,65.684967 273.931335,65.684967 270.100433,65.684967 
	C269.285278,56.441830 268.482056,47.334003 267.678833,38.226177 
	C267.343048,38.204163 267.007263,38.182152 266.671478,38.160137 
	C263.844238,46.213760 260.930237,54.238613 258.243866,62.338951 
	C257.461884,64.696899 256.522491,65.840363 253.787643,65.910698 
	C250.828400,65.986801 249.764450,64.710464 248.924744,62.193272 
	C246.253311,54.184994 243.379852,46.244106 239.500565,38.295135 
	C238.729355,47.368385 237.958145,56.441639 237.167328,65.745468 
	C233.488419,65.745468 230.056107,65.745468 226.090332,65.745468 
	C226.090332,64.188469 225.968872,62.600693 226.109329,61.036438 
	C227.373581,46.956261 228.651718,32.877037 230.045517,18.809397 
	C230.149582,17.759161 231.178436,16.800547 232.243088,15.779396 
z"/>
<path fill="#FFA705" opacity="1.000000" stroke="none" 
	d="
M152.624603,63.825588 
	C137.599655,70.780907 122.123604,65.105698 116.706444,50.948524 
	C111.037262,36.132725 118.715927,19.943056 133.416946,15.716152 
	C144.881683,12.419760 156.978897,17.613525 162.641953,28.263517 
	C168.396591,39.085728 165.846786,52.941105 156.575455,61.009102 
	C155.452988,61.985901 154.168808,62.776871 152.624603,63.825588 
M132.232391,28.558147 
	C131.314789,29.734634 130.233002,30.818207 129.506073,32.102612 
	C124.633316,40.712185 127.890144,52.308376 135.892899,55.068451 
	C141.614090,57.041641 147.403580,55.263206 150.467728,50.591312 
	C154.480347,44.473282 153.930374,34.705162 149.282806,29.545494 
	C145.353867,25.183640 139.273758,24.644342 132.232391,28.558147 
z"/>
<path fill="#FFA707" opacity="1.000000" stroke="none" 
	d="
M321.288971,37.000126 
	C321.289093,29.864124 321.289093,23.228081 321.289093,15.435734 
	C329.693695,15.835544 337.800842,15.622526 345.702972,16.793411 
	C351.637115,17.672697 355.066803,22.356728 355.728088,28.422152 
	C356.381805,34.418041 354.718811,39.641346 349.474396,43.232666 
	C348.388123,43.976532 347.221710,44.603371 345.810059,45.454216 
	C351.304260,52.085186 356.676636,58.569157 362.827423,65.992554 
	C357.781403,65.992554 353.716095,66.228577 349.706635,65.858696 
	C348.384735,65.736763 346.967499,64.241814 346.005341,63.044136 
	C341.874054,57.901730 337.895996,52.636219 333.142822,46.484596 
	C333.142822,53.508785 333.142822,59.383068 333.142822,65.630417 
	C329.165833,65.630417 325.598938,65.630417 321.288849,65.630417 
	C321.288849,56.339977 321.288849,46.920029 321.288971,37.000126 
M343.795502,31.446581 
	C342.370880,25.394661 340.517975,24.322411 333.182556,25.433962 
	C333.182556,29.476257 333.182556,33.543510 333.182556,37.824852 
	C338.056824,38.099072 342.521454,38.266953 343.795502,31.446581 
z"/>
<path fill="#FFA706" opacity="1.000000" stroke="none" 
	d="
M105.673721,27.883228 
	C95.591454,24.514210 87.783806,26.506659 83.637764,33.281265 
	C80.435303,38.514072 80.744186,44.734066 84.450012,49.637691 
	C88.476089,54.965073 96.113403,57.011742 103.465797,54.678593 
	C104.861328,54.235752 106.192299,53.589447 107.863113,52.911144 
	C108.759941,54.582516 109.640343,56.142471 110.442352,57.741741 
	C111.171371,59.195461 111.815170,60.691917 112.462250,62.095154 
	C100.645874,70.291290 83.758171,67.757103 74.807579,56.746204 
	C66.333763,46.321831 67.111107,32.269398 76.681496,22.870335 
	C86.275780,13.447811 103.305084,11.887699 112.425514,19.786501 
	C111.229973,22.255085 110.120926,24.856049 108.692307,27.267712 
	C108.351768,27.842571 106.943794,27.785112 105.673721,27.883228 
z"/>
<path fill="#FFA706" opacity="1.000000" stroke="none" 
	d="
M380.046509,16.818142 
	C389.374268,13.522715 397.935669,14.224554 406.697937,19.181377 
	C405.033844,22.583504 403.543732,25.629913 402.070526,28.641779 
	C390.859924,24.528568 382.880981,25.836277 378.249664,32.346336 
	C374.361145,37.812225 374.530701,44.711250 378.681854,49.935562 
	C383.469910,55.961403 391.527832,57.088749 401.955383,52.939861 
	C403.468079,55.934017 405.001404,58.968952 406.713959,62.358620 
	C396.991089,67.894325 387.427032,68.722107 377.848785,63.864487 
	C368.383759,59.064312 362.737396,51.276405 363.049469,40.338852 
	C363.371918,29.037397 369.604126,21.531025 380.046509,16.818142 
z"/>
<path fill="#FFA705" opacity="1.000000" stroke="none" 
	d="
M430.008301,45.887436 
	C427.535370,45.887409 425.550507,45.887409 423.162781,45.887409 
	C423.162781,49.188736 423.162781,52.244991 423.162781,55.766701 
	C428.464020,55.766701 433.891510,55.766701 439.655396,55.766701 
	C439.655396,59.273369 439.655396,62.333405 439.655396,65.703560 
	C430.420746,65.703560 421.157623,65.703560 411.485748,65.703560 
	C411.485748,49.306023 411.485748,32.789082 411.485748,16.010105 
	C420.872986,16.010105 430.128143,16.010105 439.692108,16.010105 
	C439.692108,19.170481 439.692108,22.229437 439.692108,25.812588 
	C434.121887,25.812588 428.703003,25.812588 423.030823,25.812588 
	C423.030823,29.252657 423.030823,32.182041 423.030823,35.588417 
	C428.178680,35.588417 433.271667,35.588417 438.755615,35.588417 
	C438.755615,39.104355 438.755615,42.157093 438.755615,45.887459 
	C436.041351,45.887459 433.268860,45.887459 430.008301,45.887436 
z"/>
<path fill="#FFA705" opacity="1.000000" stroke="none" 
	d="
M286.079895,39.000038 
	C286.079926,31.190563 286.079926,23.881079 286.079926,16.162489 
	C295.730621,16.162489 305.090332,16.162489 314.727478,16.162489 
	C314.727478,19.127184 314.727478,22.066298 314.727478,25.541836 
	C309.402954,25.541836 303.998291,25.541836 298.178345,25.541836 
	C298.178345,29.098730 298.178345,32.140060 298.178345,35.661484 
	C303.252106,35.661484 308.346771,35.661484 313.792603,35.661484 
	C313.792603,39.178761 313.792603,42.232204 313.792603,45.760113 
	C308.648560,45.760113 303.557434,45.760113 298.115356,45.760113 
	C298.115356,49.268715 298.115356,52.322227 298.115356,55.846039 
	C303.562683,55.846039 308.984436,55.846039 314.698853,55.846039 
	C314.698853,59.360928 314.698853,62.419533 314.698853,65.744751 
	C305.329865,65.744751 296.067291,65.744751 286.079895,65.744751 
	C286.079895,57.013313 286.079895,48.256672 286.079895,39.000038 
z"/>
<path fill="#FFA603" opacity="1.000000" stroke="none" 
	d="
M30.863564,45.880684 
	C27.104404,45.880661 23.819988,45.880661 20.317329,45.880661 
	C20.317329,49.351749 20.317329,52.290550 20.317329,55.873764 
	C25.862091,55.873764 31.410961,55.873764 37.165291,55.873764 
	C37.165291,59.462811 37.165291,62.412441 37.165291,65.681747 
	C27.868351,65.681747 18.628742,65.681747 9.072061,65.681747 
	C9.072061,49.230785 9.072061,32.845093 9.072061,16.107777 
	C18.345278,16.107777 27.555794,16.107777 37.077579,16.107777 
	C37.077579,19.168575 37.077579,22.085972 37.077579,25.541611 
	C31.634638,25.541611 26.228554,25.541611 20.453350,25.541611 
	C20.453350,29.116938 20.453350,32.165066 20.453350,35.751156 
	C25.745079,35.751156 30.992289,35.751156 36.529301,35.751156 
	C36.529301,39.200340 36.529301,42.130295 36.529301,45.880707 
	C34.831638,45.880707 33.084972,45.880707 30.863564,45.880684 
z"/>
<path fill="#7C85F6" opacity="1.000000" stroke="none" 
	d="
M131.004883,84.100632 
	C148.026031,84.031303 165.047195,83.961975 182.534027,84.308456 
	C182.992416,85.666206 182.985107,86.608147 182.977798,87.550087 
	C165.965027,87.678612 148.952271,87.807137 131.470612,87.506195 
	C131.002762,86.084686 131.003815,85.092659 131.004883,84.100632 
z"/>
<path fill="#8C5EFE" opacity="1.000000" stroke="none" 
	d="
M53.998634,87.968094 
	C38.686089,88.091675 23.373528,88.261070 8.061030,88.255249 
	C6.782114,88.254768 5.503648,87.073669 4.224976,86.441086 
	C5.523270,85.737137 6.814366,84.436264 8.120958,84.420517 
	C23.101824,84.239861 38.085045,84.254608 53.530369,84.664368 
	C53.994946,86.063667 53.996792,87.015877 53.998634,87.968094 
z"/>
<path fill="#71A4F1" opacity="1.000000" stroke="none" 
	d="
M279.995728,86.953850 
	C264.308838,87.039429 248.622009,87.125015 232.468292,86.806549 
	C232.004044,85.501717 232.006683,84.600937 232.009323,83.700150 
	C247.692184,83.529922 263.375031,83.359695 279.523712,83.630104 
	C279.991577,85.031776 279.993652,85.992813 279.995728,86.953850 
z"/>
<path fill="#7694F3" opacity="1.000000" stroke="none" 
	d="
M231.600861,83.546143 
	C232.006683,84.600937 232.004044,85.501717 232.002594,86.747940 
	C215.968491,87.318039 199.933197,87.542702 183.437836,87.658722 
	C182.985107,86.608147 182.992416,85.666206 182.999512,84.368851 
	C199.063675,83.806335 215.128036,83.599228 231.600861,83.546143 
z"/>
<path fill="#8469FB" opacity="1.000000" stroke="none" 
	d="
M54.463058,88.039017 
	C53.996792,87.015877 53.994946,86.063667 53.988815,84.755997 
	C68.671059,84.292511 83.357590,84.184486 98.554382,84.448196 
	C99.368614,85.840790 99.672585,86.861649 99.976555,87.882500 
	C84.960197,87.958313 69.943840,88.034126 54.463058,88.039017 
z"/>
<path fill="#619B1C" opacity="1.000000" stroke="none" 
	d="
M44.151962,45.182877 
	C50.538204,44.252041 56.872906,43.789040 63.569695,43.299572 
	C63.569695,46.832153 63.569695,49.573147 63.569695,52.663284 
	C57.261349,52.663284 50.895451,52.663284 44.100422,52.663284 
	C44.100422,50.222145 44.100422,47.936424 44.151962,45.182877 
z"/>
<path fill="#74E0EA" opacity="1.000000" stroke="none" 
	d="
M410.966370,82.893784 
	C421.191040,82.663155 431.415344,82.378891 441.641083,82.312561 
	C442.389496,82.307693 443.148132,83.879532 443.902039,84.718353 
	C442.838898,85.424080 441.785217,86.725372 440.711151,86.742424 
	C431.108337,86.894753 421.501923,86.820755 411.443817,86.348404 
	C410.982819,84.886894 410.974609,83.890335 410.966370,82.893784 
z"/>
<path fill="#66C7EB" opacity="1.000000" stroke="none" 
	d="
M346.999329,83.141769 
	C358.353729,83.074364 369.708130,83.006958 381.530884,83.357201 
	C381.991699,84.748573 381.984131,85.722305 381.976562,86.696030 
	C370.627594,86.776375 359.278595,86.856720 347.464783,86.508858 
	C346.999756,85.101028 346.999542,84.121399 346.999329,83.141769 
z"/>
<path fill="#70B4EF" opacity="1.000000" stroke="none" 
	d="
M280.461456,87.015862 
	C279.993652,85.992813 279.991577,85.031776 279.983276,83.713211 
	C291.009491,83.263657 302.041931,83.171631 313.538025,83.512497 
	C314.002014,84.923607 314.002411,85.901833 314.002808,86.880066 
	C302.977600,86.945999 291.952393,87.011932 280.461456,87.015862 
z"/>
<path fill="#69BDEC" opacity="1.000000" stroke="none" 
	d="
M314.468262,86.938202 
	C314.002411,85.901833 314.002014,84.923607 314.002319,83.579475 
	C324.691437,83.149811 335.379913,83.086044 346.533875,83.082024 
	C346.999542,84.121399 346.999756,85.101028 346.999908,86.447433 
	C336.311127,86.874931 325.622406,86.935638 314.468262,86.938202 
z"/>
<path fill="#8F7FFA" opacity="1.000000" stroke="none" 
	d="
M100.442703,87.952324 
	C99.672585,86.861649 99.368614,85.840790 99.018433,84.500916 
	C109.339348,84.113808 119.706482,84.045731 130.539246,84.039139 
	C131.003815,85.092659 131.002762,86.084686 131.005966,87.448166 
	C120.976433,87.887123 110.942650,87.954636 100.442703,87.952324 
z"/>
<path fill="#6BD2EA" opacity="1.000000" stroke="none" 
	d="
M382.440552,86.782135 
	C381.984131,85.722305 381.991699,84.748573 381.996887,83.408386 
	C391.341766,82.972397 400.688965,82.902885 410.501282,82.863571 
	C410.974609,83.890335 410.982819,84.886894 410.983734,86.251541 
	C401.619110,86.702507 392.261841,86.785378 382.440552,86.782135 
z"/>
<path fill="#FFFDFA" opacity="1.000000" stroke="none" 
	d="
M132.535278,28.322523 
	C139.273758,24.644342 145.353867,25.183640 149.282806,29.545494 
	C153.930374,34.705162 154.480347,44.473282 150.467728,50.591312 
	C147.403580,55.263206 141.614090,57.041641 135.892899,55.068451 
	C127.890144,52.308376 124.633316,40.712185 129.506073,32.102612 
	C130.233002,30.818207 131.314789,29.734634 132.535278,28.322523 
z"/>
<path fill="#FFFCF7" opacity="1.000000" stroke="none" 
	d="
M343.764343,31.831467 
	C342.521454,38.266953 338.056824,38.099072 333.182556,37.824852 
	C333.182556,33.543510 333.182556,29.476257 333.182556,25.433962 
	C340.517975,24.322411 342.370880,25.394661 343.764343,31.831467 
z"/>
</svg>