<svg version="1.1" id="Layer_1" xmlns="http://www.w3.org/2000/svg" xmlns:xlink="http://www.w3.org/1999/xlink" x="0px" y="0px"
	 width="100%" viewBox="0 0 1436 252" enable-background="new 0 0 1436 252" xml:space="preserve">
<path fill="#FFFFFE" opacity="1.000000" stroke="none" 
	d="
M1051.000000,253.000000 
	C700.666748,253.000000 350.833557,253.000000 1.000235,253.000000 
	C1.000156,169.000122 1.000156,85.000259 1.000078,1.000291 
	C479.666382,1.000194 958.332764,1.000194 1436.999268,1.000097 
	C1436.999512,84.999702 1436.999512,168.999405 1436.999756,252.999557 
	C1308.500000,253.000000 1180.000000,253.000000 1051.000000,253.000000 
M77.314285,86.136024 
	C77.314285,63.188358 77.314285,40.240692 77.314285,17.055080 
	C63.257336,17.055080 50.032303,17.055080 36.262409,17.055080 
	C36.262409,19.125481 36.262409,20.915266 36.262409,22.705051 
	C36.262409,43.198101 36.447906,63.693378 36.201218,84.183456 
	C36.017864,99.413177 36.641987,114.459404 41.570808,129.486816 
	C39.826641,139.243835 36.858429,148.965775 36.577629,158.764725 
	C35.858269,183.867508 36.333843,209.004501 36.331646,234.127823 
	C36.331509,235.711670 36.331631,237.295532 36.331631,238.858063 
	C50.489212,238.858063 63.863235,238.858063 77.667671,238.858063 
	C77.667671,215.382767 77.667671,192.284775 78.406876,169.521759 
	C83.616837,171.690506 88.693428,174.289490 94.060005,175.952957 
	C116.381805,182.871979 137.756134,179.858780 158.285706,170.056931 
	C158.285706,192.965500 158.285706,215.874069 158.285706,238.814453 
	C172.673904,238.814453 185.859100,238.814453 199.128601,238.814453 
	C199.128601,209.792450 199.510834,181.174484 198.885315,152.578568 
	C198.707932,144.469757 195.591431,136.425217 193.957474,127.549454 
	C197.506729,117.582733 199.331940,107.362885 199.269974,96.729462 
	C199.124268,71.731148 199.224991,46.731396 199.225967,21.732225 
	C199.226028,20.156448 199.225983,18.580673 199.225983,17.087025 
	C185.122406,17.087025 171.862823,17.087025 157.961609,17.087025 
	C157.961609,40.524654 157.961609,63.647995 157.263580,86.437546 
	C130.583084,72.685722 104.010124,72.891304 77.314285,86.136024 
M253.018936,171.335571 
	C253.018936,172.956665 253.018936,174.577759 253.018936,176.374390 
	C294.816559,176.374390 336.204132,176.374390 378.366028,176.374390 
	C378.366028,165.892136 378.366028,155.710846 378.366028,145.769501 
	C349.307343,146.290543 320.242279,146.811707 291.234619,147.331833 
	C291.234619,141.182663 291.234619,135.942886 291.234619,130.631714 
	C316.452759,130.631714 341.351440,130.631714 366.304230,130.631714 
	C366.304230,121.693489 366.304230,112.829269 366.304230,104.049957 
	C341.014801,104.049957 316.123322,104.049957 291.157867,104.049957 
	C291.157867,98.863823 291.157867,94.114281 291.157867,88.887314 
	C320.121094,88.887314 348.845612,88.887314 377.644104,88.887314 
	C377.644104,79.000900 377.644104,69.599739 377.644104,60.194695 
	C335.971222,60.194695 294.590057,60.194695 253.032486,60.194695 
	C253.032486,97.136505 253.032486,133.755997 253.018936,171.335571 
M1004.340027,108.262039 
	C1000.315002,95.715706 991.887634,88.181953 978.659973,87.290749 
	C961.223633,86.115990 950.230774,95.371582 943.457886,111.198540 
	C939.739685,97.315453 931.416260,88.944923 917.414490,87.401001 
	C899.654053,85.442635 889.000671,94.843636 882.609497,111.390656 
	C880.872314,103.153488 879.367249,96.016678 877.917969,89.144760 
	C866.778931,89.144760 856.337463,89.144760 846.166443,89.144760 
	C846.166443,118.403557 846.166443,147.421616 846.166443,176.378860 
	C858.735840,176.378860 871.161865,176.378860 883.602966,176.378860 
	C883.602966,163.273117 883.389038,150.469055 883.724243,137.679367 
	C883.834778,133.462936 884.780029,129.043549 886.382690,125.144073 
	C888.744019,119.398857 893.600769,117.081352 899.239624,117.860588 
	C904.228516,118.549988 908.172424,122.482346 909.012024,128.404663 
	C909.592224,132.497040 909.530396,136.696320 909.552673,140.848907 
	C909.615845,152.628494 909.574829,164.408615 909.574829,176.377319 
	C921.062378,176.377319 932.796387,176.377319 944.064087,176.377319 
	C944.064087,163.266556 943.850830,150.463959 944.181458,137.675415 
	C944.294678,133.296783 945.111633,128.679153 946.783691,124.660248 
	C949.104980,119.080742 954.008484,117.045464 959.898132,117.901596 
	C965.115295,118.659973 968.928711,122.465248 970.012207,128.181213 
	C970.382690,130.135986 970.653687,132.154434 970.609619,134.135773 
	C970.327820,146.795059 969.941895,159.452026 969.601562,172.110062 
	C969.563477,173.525909 969.596436,174.943649 969.596436,176.428131 
	C982.179199,176.428131 994.275146,176.428131 1006.828674,176.428131 
	C1006.828674,174.891159 1006.835266,173.608170 1006.827637,172.325256 
	C1006.736511,156.995407 1006.802612,141.662064 1006.468628,126.337471 
	C1006.342529,120.549934 1005.289917,114.782600 1004.340027,108.262039 
M800.721436,157.064743 
	C800.431152,163.475006 800.140808,169.885254 799.846497,176.383591 
	C812.633179,176.383591 824.714905,176.383591 836.759583,176.383591 
	C836.759583,156.775375 836.781067,137.468719 836.724548,118.162292 
	C836.719238,116.349335 836.272095,114.528877 835.946716,112.726974 
	C832.659363,94.523697 817.881042,84.331787 799.784058,87.818565 
	C788.837585,89.927658 781.360962,96.542656 776.254089,106.165291 
	C775.541260,107.508293 774.868530,108.872543 773.821289,110.924309 
	C769.560730,96.128784 760.475037,88.095673 746.034180,87.246719 
	C729.067383,86.249268 718.830139,95.346977 713.190308,112.010933 
	C711.379517,103.473000 709.843323,96.229980 708.365540,89.262100 
	C697.238464,89.262100 686.671326,89.262100 676.527954,89.262100 
	C676.527954,118.513985 676.527954,147.410049 676.527954,176.392792 
	C688.989807,176.392792 701.406067,176.392792 713.995300,176.392792 
	C713.995300,163.129807 713.575317,150.136765 714.205444,137.194855 
	C714.451843,132.132126 716.081787,126.557846 718.803955,122.323929 
	C723.421936,115.141373 733.784546,116.160240 737.758057,123.762077 
	C739.161133,126.446388 739.882935,129.784531 739.913574,132.834229 
	C740.017212,143.159134 739.652771,153.488266 739.507812,163.816376 
	C739.450012,167.932343 739.498352,172.049789 739.498352,176.397003 
	C751.301270,176.397003 763.036255,176.397003 774.572571,176.397003 
	C774.572571,163.638016 774.352173,151.163132 774.685181,138.703033 
	C774.811340,133.982132 775.505798,129.016556 777.220032,124.666435 
	C779.183533,119.683563 783.604431,117.227264 789.322266,117.774132 
	C794.538391,118.273018 798.022217,121.037582 799.736694,125.807076 
	C800.562378,128.104065 800.917847,130.679474 800.943176,133.134399 
	C801.022217,140.796783 800.842285,148.461838 800.721436,157.064743 
M599.144592,88.544540 
	C577.488953,92.585983 565.269531,104.796684 562.545898,126.225479 
	C559.812500,147.730896 569.374146,170.774002 596.793945,176.356720 
	C608.700012,178.780823 620.648438,178.789993 632.568298,176.800674 
	C655.401306,172.990051 669.704285,157.408066 670.845093,135.410278 
	C672.034363,112.477562 659.646301,95.832481 636.666931,89.680725 
	C624.562378,86.440269 612.292969,86.518356 599.144592,88.544540 
M1345.294800,140.613495 
	C1345.026978,139.382217 1344.759155,138.150940 1344.366455,136.345566 
	C1368.616821,136.345566 1392.359253,136.345566 1416.259766,136.345566 
	C1416.500488,134.762833 1416.773560,133.645752 1416.826294,132.518326 
	C1417.680908,114.283607 1408.174927,99.433273 1390.747559,92.173508 
	C1378.291260,86.984604 1365.292725,86.443741 1351.999146,87.811432 
	C1323.428467,90.750923 1307.457275,109.901169 1310.079956,138.490021 
	C1311.710205,156.259277 1322.894531,169.987534 1340.048340,175.118591 
	C1352.235962,178.764236 1364.667969,178.747787 1377.170288,177.315887 
	C1387.258301,176.160477 1396.863037,173.400986 1404.778809,166.866241 
	C1408.989624,163.390106 1412.319580,158.847137 1416.514282,154.276810 
	C1407.383423,150.626373 1399.618530,147.775681 1392.090088,144.397903 
	C1388.676636,142.866287 1386.604004,142.665161 1383.578735,145.615097 
	C1374.498901,154.469147 1351.425537,156.119293 1345.294800,140.613495 
M1114.134033,109.456451 
	C1109.339478,101.192978 1102.212769,95.527008 1093.471802,92.167465 
	C1075.026123,85.077957 1056.298584,85.147980 1037.889404,92.051102 
	C1024.982056,96.891174 1017.033630,106.853355 1014.189758,120.213943 
	C1012.861511,126.454376 1012.536072,133.179535 1013.227234,139.524750 
	C1014.914673,155.015610 1022.595642,167.192902 1037.363892,172.945038 
	C1058.224487,181.070068 1079.447998,180.381531 1100.057617,171.599716 
	C1108.106079,168.170242 1114.571533,162.408554 1118.163696,153.913971 
	C1109.179932,150.218979 1100.498413,146.562134 1091.717651,143.161026 
	C1090.769165,142.793640 1088.912354,143.559662 1088.042480,144.391418 
	C1080.681763,151.429916 1071.780640,153.137894 1062.142456,151.845154 
	C1054.038940,150.758255 1048.434326,144.696686 1047.432861,136.121246 
	C1071.345337,136.121246 1095.198730,136.121246 1119.225952,136.121246 
	C1120.329834,126.582222 1118.913330,118.068810 1114.134033,109.456451 
M550.492188,150.070038 
	C543.644836,148.040634 536.831665,145.879715 529.923889,144.082382 
	C528.366821,143.677246 525.956116,143.938156 524.831360,144.917740 
	C518.367859,150.547119 511.087311,152.022293 502.932587,150.087372 
	C494.738617,148.143143 489.746918,141.345734 489.872253,132.358353 
	C489.993286,123.675743 495.111145,116.776825 503.070709,115.207687 
	C510.914307,113.661415 518.318542,114.579552 524.588745,120.262856 
	C525.564270,121.147018 527.286743,122.170540 528.315430,121.883057 
	C538.304993,119.091194 548.220337,116.033417 558.494690,112.950089 
	C553.371399,101.671051 544.768005,94.818581 533.630188,90.989471 
	C521.593140,86.851219 509.207367,86.525452 496.625641,87.840111 
	C471.602234,90.454803 456.511841,105.875275 455.589905,130.942505 
	C454.944458,148.491974 460.627625,163.845718 477.195953,171.670319 
	C498.304108,181.638947 520.203918,180.920578 541.354736,170.882904 
	C549.264465,167.129166 555.007751,160.721451 558.511230,152.084244 
	C555.781494,151.382721 553.542236,150.807266 550.492188,150.070038 
M1237.863892,136.046906 
	C1236.314575,123.061996 1243.471313,114.844398 1256.482056,114.590347 
	C1262.398682,114.474831 1267.549683,116.209900 1272.077026,120.126404 
	C1273.250122,121.141113 1275.396973,122.063057 1276.729248,121.695717 
	C1286.447876,119.016113 1296.072632,115.996529 1306.204468,112.940331 
	C1301.159302,101.808464 1292.522827,94.832253 1281.250732,90.964699 
	C1269.054565,86.780067 1256.501099,86.529648 1243.768921,87.878937 
	C1220.562988,90.338173 1206.139526,104.310158 1203.347046,127.440140 
	C1200.594849,150.236237 1212.793091,169.662262 1234.017212,175.451111 
	C1249.260376,179.608719 1264.696289,179.421982 1279.847290,174.879761 
	C1291.772827,171.304459 1300.902344,164.108170 1306.244385,152.409653 
	C1296.902832,149.689911 1287.946777,147.250137 1279.115967,144.419876 
	C1276.048096,143.436661 1273.955444,143.148041 1271.277344,145.705063 
	C1262.303101,154.273209 1241.032471,153.112289 1237.863892,136.046906 
M1125.043945,135.499939 
	C1125.043945,149.081009 1125.043945,162.662079 1125.043945,176.423309 
	C1136.889404,176.423309 1149.293701,176.423309 1161.883057,176.423309 
	C1161.883057,164.382812 1161.723389,152.600357 1161.922119,140.823959 
	C1162.191284,124.869133 1170.695679,118.148529 1186.325073,121.385933 
	C1190.443604,122.239037 1194.473389,123.520668 1198.713745,124.650795 
	C1200.419678,112.615852 1202.067017,100.993477 1203.752686,89.100693 
	C1194.635010,87.511818 1186.132080,87.999413 1177.962524,91.506271 
	C1169.385742,95.187965 1164.550171,102.273338 1161.151611,111.987175 
	C1159.341919,103.459015 1157.806519,96.223549 1156.328369,89.257919 
	C1145.206665,89.257919 1134.647461,89.257919 1125.047363,89.257919 
	C1125.047363,104.575935 1125.047363,119.537949 1125.043945,135.499939 
M449.274353,106.065819 
	C427.541656,106.065819 405.808960,106.065819 384.160278,106.065819 
	C384.160278,116.882927 384.160278,127.080826 384.160278,137.263519 
	C407.267853,137.263519 429.978394,137.263519 452.941376,137.263519 
	C452.941376,127.623161 453.023529,118.314774 452.822357,109.012520 
	C452.800720,108.012360 451.131775,107.047821 449.274353,106.065819 
z"/>
<path fill="#3E9A71" opacity="1.000000" stroke="none" 
	d="
M42.043404,128.923584 
	C36.641987,114.459404 36.017864,99.413177 36.201218,84.183456 
	C36.447906,63.693378 36.262409,43.198101 36.262409,22.705051 
	C36.262409,20.915266 36.262409,19.125481 36.262409,17.055080 
	C50.032303,17.055080 63.257336,17.055080 77.314285,17.055080 
	C77.314285,40.240692 77.314285,63.188358 77.316429,87.039139 
	C77.304024,90.910965 77.182396,93.883713 77.293655,96.847710 
	C77.749474,108.990189 81.161697,119.856674 91.100189,128.142715 
	C107.660782,142.103699 130.401764,141.849106 145.238113,127.618546 
	C148.810760,122.698532 152.618942,118.238373 155.172668,113.148781 
	C159.334427,104.854416 158.218460,95.700325 157.961609,86.771339 
	C157.961609,63.647995 157.961609,40.524654 157.961609,17.087025 
	C171.862823,17.087025 185.122406,17.087025 199.225983,17.087025 
	C199.225983,18.580673 199.226028,20.156448 199.225967,21.732225 
	C199.224991,46.731396 199.124268,71.731148 199.269974,96.729462 
	C199.331940,107.362885 197.506729,117.582733 193.647064,128.152252 
	C186.251251,146.217743 174.157578,159.330688 158.261078,169.140854 
	C137.756134,179.858780 116.381805,182.871979 94.060005,175.952957 
	C88.693428,174.289490 83.616837,171.690506 77.819595,169.190796 
	C73.972366,166.599197 70.632965,164.444016 67.466698,162.059006 
	C55.936188,153.373581 48.178890,141.763931 42.043404,128.923584 
z"/>
<path fill="#3D3D3D" opacity="1.000000" stroke="none" 
	d="
M253.025711,170.855530 
	C253.032486,133.755997 253.032486,97.136505 253.032486,60.194695 
	C294.590057,60.194695 335.971222,60.194695 377.644104,60.194695 
	C377.644104,69.599739 377.644104,79.000900 377.644104,88.887314 
	C348.845612,88.887314 320.121094,88.887314 291.157867,88.887314 
	C291.157867,94.114281 291.157867,98.863823 291.157867,104.049957 
	C316.123322,104.049957 341.014801,104.049957 366.304230,104.049957 
	C366.304230,112.829269 366.304230,121.693489 366.304230,130.631714 
	C341.351440,130.631714 316.452759,130.631714 291.234619,130.631714 
	C291.234619,135.942886 291.234619,141.182663 291.234619,147.331833 
	C320.242279,146.811707 349.307343,146.290543 378.366028,145.769501 
	C378.366028,155.710846 378.366028,165.892136 378.366028,176.374390 
	C336.204132,176.374390 294.816559,176.374390 253.018936,176.374390 
	C253.018936,174.577759 253.018936,172.956665 253.025711,170.855530 
z"/>
<path fill="#3E3E3E" opacity="1.000000" stroke="none" 
	d="
M1004.499878,108.634048 
	C1005.289917,114.782600 1006.342529,120.549934 1006.468628,126.337471 
	C1006.802612,141.662064 1006.736511,156.995407 1006.827637,172.325256 
	C1006.835266,173.608170 1006.828674,174.891159 1006.828674,176.428131 
	C994.275146,176.428131 982.179199,176.428131 969.596436,176.428131 
	C969.596436,174.943649 969.563477,173.525909 969.601562,172.110062 
	C969.941895,159.452026 970.327820,146.795059 970.609619,134.135773 
	C970.653687,132.154434 970.382690,130.135986 970.012207,128.181213 
	C968.928711,122.465248 965.115295,118.659973 959.898132,117.901596 
	C954.008484,117.045464 949.104980,119.080742 946.783691,124.660248 
	C945.111633,128.679153 944.294678,133.296783 944.181458,137.675415 
	C943.850830,150.463959 944.064087,163.266556 944.064087,176.377319 
	C932.796387,176.377319 921.062378,176.377319 909.574829,176.377319 
	C909.574829,164.408615 909.615845,152.628494 909.552673,140.848907 
	C909.530396,136.696320 909.592224,132.497040 909.012024,128.404663 
	C908.172424,122.482346 904.228516,118.549988 899.239624,117.860588 
	C893.600769,117.081352 888.744019,119.398857 886.382690,125.144073 
	C884.780029,129.043549 883.834778,133.462936 883.724243,137.679367 
	C883.389038,150.469055 883.602966,163.273117 883.602966,176.378860 
	C871.161865,176.378860 858.735840,176.378860 846.166443,176.378860 
	C846.166443,147.421616 846.166443,118.403557 846.166443,89.144760 
	C856.337463,89.144760 866.778931,89.144760 877.917969,89.144760 
	C879.367249,96.016678 880.872314,103.153488 882.609497,111.390656 
	C889.000671,94.843636 899.654053,85.442635 917.414490,87.401001 
	C931.416260,88.944923 939.739685,97.315453 943.457886,111.198540 
	C950.230774,95.371582 961.223633,86.115990 978.659973,87.290749 
	C991.887634,88.181953 1000.315002,95.715706 1004.499878,108.634048 
z"/>
<path fill="#3D3D3D" opacity="1.000000" stroke="none" 
	d="
M800.742065,156.595306 
	C800.842285,148.461838 801.022217,140.796783 800.943176,133.134399 
	C800.917847,130.679474 800.562378,128.104065 799.736694,125.807076 
	C798.022217,121.037582 794.538391,118.273018 789.322266,117.774132 
	C783.604431,117.227264 779.183533,119.683563 777.220032,124.666435 
	C775.505798,129.016556 774.811340,133.982132 774.685181,138.703033 
	C774.352173,151.163132 774.572571,163.638016 774.572571,176.397003 
	C763.036255,176.397003 751.301270,176.397003 739.498352,176.397003 
	C739.498352,172.049789 739.450012,167.932343 739.507812,163.816376 
	C739.652771,153.488266 740.017212,143.159134 739.913574,132.834229 
	C739.882935,129.784531 739.161133,126.446388 737.758057,123.762077 
	C733.784546,116.160240 723.421936,115.141373 718.803955,122.323929 
	C716.081787,126.557846 714.451843,132.132126 714.205444,137.194855 
	C713.575317,150.136765 713.995300,163.129807 713.995300,176.392792 
	C701.406067,176.392792 688.989807,176.392792 676.527954,176.392792 
	C676.527954,147.410049 676.527954,118.513985 676.527954,89.262100 
	C686.671326,89.262100 697.238464,89.262100 708.365540,89.262100 
	C709.843323,96.229980 711.379517,103.473000 713.190308,112.010933 
	C718.830139,95.346977 729.067383,86.249268 746.034180,87.246719 
	C760.475037,88.095673 769.560730,96.128784 773.821289,110.924309 
	C774.868530,108.872543 775.541260,107.508293 776.254089,106.165291 
	C781.360962,96.542656 788.837585,89.927658 799.784058,87.818565 
	C817.881042,84.331787 832.659363,94.523697 835.946716,112.726974 
	C836.272095,114.528877 836.719238,116.349335 836.724548,118.162292 
	C836.781067,137.468719 836.759583,156.775375 836.759583,176.383591 
	C824.714905,176.383591 812.633179,176.383591 799.846497,176.383591 
	C800.140808,169.885254 800.431152,163.475006 800.742065,156.595306 
z"/>
<path fill="#3D3D3D" opacity="1.000000" stroke="none" 
	d="
M599.562439,88.433990 
	C612.292969,86.518356 624.562378,86.440269 636.666931,89.680725 
	C659.646301,95.832481 672.034363,112.477562 670.845093,135.410278 
	C669.704285,157.408066 655.401306,172.990051 632.568298,176.800674 
	C620.648438,178.789993 608.700012,178.780823 596.793945,176.356720 
	C569.374146,170.774002 559.812500,147.730896 562.545898,126.225479 
	C565.269531,104.796684 577.488953,92.585983 599.562439,88.433990 
M636.938293,133.351807 
	C636.566467,121.775375 630.734863,115.592751 619.216248,114.761940 
	C616.580078,114.571808 613.891846,114.665237 611.259888,114.938560 
	C604.156738,115.676201 599.043335,119.236977 597.020752,126.249832 
	C594.856506,133.754318 595.456787,141.172546 601.716064,146.410690 
	C608.856506,152.386185 617.471863,151.933777 625.862732,149.302261 
	C633.062561,147.044266 636.148254,141.376129 636.938293,133.351807 
z"/>
<path fill="#3D3D3D" opacity="1.000000" stroke="none" 
	d="
M1345.498657,140.965530 
	C1351.425537,156.119293 1374.498901,154.469147 1383.578735,145.615097 
	C1386.604004,142.665161 1388.676636,142.866287 1392.090088,144.397903 
	C1399.618530,147.775681 1407.383423,150.626373 1416.514282,154.276810 
	C1412.319580,158.847137 1408.989624,163.390106 1404.778809,166.866241 
	C1396.863037,173.400986 1387.258301,176.160477 1377.170288,177.315887 
	C1364.667969,178.747787 1352.235962,178.764236 1340.048340,175.118591 
	C1322.894531,169.987534 1311.710205,156.259277 1310.079956,138.490021 
	C1307.457275,109.901169 1323.428467,90.750923 1351.999146,87.811432 
	C1365.292725,86.443741 1378.291260,86.984604 1390.747559,92.173508 
	C1408.174927,99.433273 1417.680908,114.283607 1416.826294,132.518326 
	C1416.773560,133.645752 1416.500488,134.762833 1416.259766,136.345566 
	C1392.359253,136.345566 1368.616821,136.345566 1344.366455,136.345566 
	C1344.759155,138.150940 1345.026978,139.382217 1345.498657,140.965530 
M1352.636230,122.937187 
	C1362.632935,122.937187 1372.629761,122.937187 1382.927856,122.937187 
	C1378.799072,113.533371 1372.389526,110.479446 1360.880005,111.857819 
	C1352.884155,112.815384 1347.276611,116.975906 1346.209351,122.937180 
	C1348.060547,122.937180 1349.872681,122.937180 1352.636230,122.937187 
z"/>
<path fill="#3D3D3D" opacity="1.000000" stroke="none" 
	d="
M1114.339355,109.766235 
	C1118.913330,118.068810 1120.329834,126.582222 1119.225952,136.121246 
	C1095.198730,136.121246 1071.345337,136.121246 1047.432861,136.121246 
	C1048.434326,144.696686 1054.038940,150.758255 1062.142456,151.845154 
	C1071.780640,153.137894 1080.681763,151.429916 1088.042480,144.391418 
	C1088.912354,143.559662 1090.769165,142.793640 1091.717651,143.161026 
	C1100.498413,146.562134 1109.179932,150.218979 1118.163696,153.913971 
	C1114.571533,162.408554 1108.106079,168.170242 1100.057617,171.599716 
	C1079.447998,180.381531 1058.224487,181.070068 1037.363892,172.945038 
	C1022.595642,167.192902 1014.914673,155.015610 1013.227234,139.524750 
	C1012.536072,133.179535 1012.861511,126.454376 1014.189758,120.213943 
	C1017.033630,106.853355 1024.982056,96.891174 1037.889404,92.051102 
	C1056.298584,85.147980 1075.026123,85.077957 1093.471802,92.167465 
	C1102.212769,95.527008 1109.339478,101.192978 1114.339355,109.766235 
M1056.584717,122.936752 
	C1066.146484,122.936752 1075.708374,122.936752 1085.394775,122.936752 
	C1082.725708,114.613007 1075.966431,110.767303 1066.058594,111.603378 
	C1056.138062,112.440514 1050.011108,116.491516 1049.137207,122.936745 
	C1051.310181,122.936745 1053.461914,122.936745 1056.584717,122.936752 
z"/>
<path fill="#3D3D3D" opacity="1.000000" stroke="none" 
	d="
M550.897583,150.150925 
	C553.542236,150.807266 555.781494,151.382721 558.511230,152.084244 
	C555.007751,160.721451 549.264465,167.129166 541.354736,170.882904 
	C520.203918,180.920578 498.304108,181.638947 477.195953,171.670319 
	C460.627625,163.845718 454.944458,148.491974 455.589905,130.942505 
	C456.511841,105.875275 471.602234,90.454803 496.625641,87.840111 
	C509.207367,86.525452 521.593140,86.851219 533.630188,90.989471 
	C544.768005,94.818581 553.371399,101.671051 558.494690,112.950089 
	C548.220337,116.033417 538.304993,119.091194 528.315430,121.883057 
	C527.286743,122.170540 525.564270,121.147018 524.588745,120.262856 
	C518.318542,114.579552 510.914307,113.661415 503.070709,115.207687 
	C495.111145,116.776825 489.993286,123.675743 489.872253,132.358353 
	C489.746918,141.345734 494.738617,148.143143 502.932587,150.087372 
	C511.087311,152.022293 518.367859,150.547119 524.831360,144.917740 
	C525.956116,143.938156 528.366821,143.677246 529.923889,144.082382 
	C536.831665,145.879715 543.644836,148.040634 550.897583,150.150925 
z"/>
<path fill="#3D3D3D" opacity="1.000000" stroke="none" 
	d="
M1237.921265,136.476440 
	C1241.032471,153.112289 1262.303101,154.273209 1271.277344,145.705063 
	C1273.955444,143.148041 1276.048096,143.436661 1279.115967,144.419876 
	C1287.946777,147.250137 1296.902832,149.689911 1306.244385,152.409653 
	C1300.902344,164.108170 1291.772827,171.304459 1279.847290,174.879761 
	C1264.696289,179.421982 1249.260376,179.608719 1234.017212,175.451111 
	C1212.793091,169.662262 1200.594849,150.236237 1203.347046,127.440140 
	C1206.139526,104.310158 1220.562988,90.338173 1243.768921,87.878937 
	C1256.501099,86.529648 1269.054565,86.780067 1281.250732,90.964699 
	C1292.522827,94.832253 1301.159302,101.808464 1306.204468,112.940331 
	C1296.072632,115.996529 1286.447876,119.016113 1276.729248,121.695717 
	C1275.396973,122.063057 1273.250122,121.141113 1272.077026,120.126404 
	C1267.549683,116.209900 1262.398682,114.474831 1256.482056,114.590347 
	C1243.471313,114.844398 1236.314575,123.061996 1237.921265,136.476440 
z"/>
<path fill="#3E3E3E" opacity="1.000000" stroke="none" 
	d="
M1125.045654,134.999954 
	C1125.047363,119.537949 1125.047363,104.575935 1125.047363,89.257919 
	C1134.647461,89.257919 1145.206665,89.257919 1156.328369,89.257919 
	C1157.806519,96.223549 1159.341919,103.459015 1161.151611,111.987175 
	C1164.550171,102.273338 1169.385742,95.187965 1177.962524,91.506271 
	C1186.132080,87.999413 1194.635010,87.511818 1203.752686,89.100693 
	C1202.067017,100.993477 1200.419678,112.615852 1198.713745,124.650795 
	C1194.473389,123.520668 1190.443604,122.239037 1186.325073,121.385933 
	C1170.695679,118.148529 1162.191284,124.869133 1161.922119,140.823959 
	C1161.723389,152.600357 1161.883057,164.382812 1161.883057,176.423309 
	C1149.293701,176.423309 1136.889404,176.423309 1125.043945,176.423309 
	C1125.043945,162.662079 1125.043945,149.081009 1125.045654,134.999954 
z"/>
<path fill="#FF8720" opacity="1.000000" stroke="none" 
	d="
M41.807106,129.205200 
	C48.178890,141.763931 55.936188,153.373581 67.466698,162.059006 
	C70.632965,164.444016 73.972366,166.599197 77.449989,169.023315 
	C77.667671,192.284775 77.667671,215.382767 77.667671,238.858063 
	C63.863235,238.858063 50.489212,238.858063 36.331631,238.858063 
	C36.331631,237.295532 36.331509,235.711670 36.331646,234.127823 
	C36.333843,209.004501 35.858269,183.867508 36.577629,158.764725 
	C36.858429,148.965775 39.826641,139.243835 41.807106,129.205200 
z"/>
<path fill="#FF851C" opacity="1.000000" stroke="none" 
	d="
M158.273392,169.598892 
	C174.157578,159.330688 186.251251,146.217743 193.579742,128.553131 
	C195.591431,136.425217 198.707932,144.469757 198.885315,152.578568 
	C199.510834,181.174484 199.128601,209.792450 199.128601,238.814453 
	C185.859100,238.814453 172.673904,238.814453 158.285706,238.814453 
	C158.285706,215.874069 158.285706,192.965500 158.273392,169.598892 
z"/>
<path fill="#FE861D" opacity="1.000000" stroke="none" 
	d="
M90.972977,127.888710 
	C81.161697,119.856674 77.749474,108.990189 77.293655,96.847710 
	C77.182396,93.883713 77.304024,90.910965 77.431625,87.496986 
	C104.010124,72.891304 130.583084,72.685722 157.612595,86.604446 
	C158.218460,95.700325 159.334427,104.854416 155.172668,113.148781 
	C152.618942,118.238373 148.810760,122.698532 144.967804,127.361435 
	C127.250046,113.896034 106.875664,114.127716 90.972977,127.888710 
z"/>
<path fill="#3F3F3F" opacity="1.000000" stroke="none" 
	d="
M449.750671,106.066284 
	C451.131775,107.047821 452.800720,108.012360 452.822357,109.012520 
	C453.023529,118.314774 452.941376,127.623161 452.941376,137.263519 
	C429.978394,137.263519 407.267853,137.263519 384.160278,137.263519 
	C384.160278,127.080826 384.160278,116.882927 384.160278,106.065819 
	C405.808960,106.065819 427.541656,106.065819 449.750671,106.066284 
z"/>
<path fill="#FEFDFC" opacity="1.000000" stroke="none" 
	d="
M91.100189,128.142715 
	C106.875664,114.127716 127.250046,113.896034 144.640015,127.538635 
	C130.401764,141.849106 107.660782,142.103699 91.100189,128.142715 
z"/>
<path fill="#FDFDFD" opacity="1.000000" stroke="none" 
	d="
M636.924561,133.777344 
	C636.148254,141.376129 633.062561,147.044266 625.862732,149.302261 
	C617.471863,151.933777 608.856506,152.386185 601.716064,146.410690 
	C595.456787,141.172546 594.856506,133.754318 597.020752,126.249832 
	C599.043335,119.236977 604.156738,115.676201 611.259888,114.938560 
	C613.891846,114.665237 616.580078,114.571808 619.216248,114.761940 
	C630.734863,115.592751 636.566467,121.775375 636.924561,133.777344 
z"/>
<path fill="#F9F9F9" opacity="1.000000" stroke="none" 
	d="
M1352.160522,122.937180 
	C1349.872681,122.937180 1348.060547,122.937180 1346.209351,122.937180 
	C1347.276611,116.975906 1352.884155,112.815384 1360.880005,111.857819 
	C1372.389526,110.479446 1378.799072,113.533371 1382.927856,122.937187 
	C1372.629761,122.937187 1362.632935,122.937187 1352.160522,122.937180 
z"/>
<path fill="#F9F9F9" opacity="1.000000" stroke="none" 
	d="
M1056.099243,122.936752 
	C1053.461914,122.936745 1051.310181,122.936745 1049.137207,122.936745 
	C1050.011108,116.491516 1056.138062,112.440514 1066.058594,111.603378 
	C1075.966431,110.767303 1082.725708,114.613007 1085.394775,122.936752 
	C1075.708374,122.936752 1066.146484,122.936752 1056.099243,122.936752 
z"/>
</svg>